<svg width="8427" height="2144" viewBox="0 0 8427 2144" fill="none" xmlns="http://www.w3.org/2000/svg">
<path d="M1852.6 1735.6C1837.6 1847.2 1762.5 1943.7 1657.4 1986.6C1605.9 2008 1550.1 2014.5 1494.3 2008C1440.7 2001.6 1387 1984.4 1331.3 1952.3C1254.1 1909.3 1176.8 1842.9 1086.7 1744.2C1228.3 1570.4 1314.1 1411.7 1346.3 1270.1C1361.3 1203.6 1363.5 1143.5 1357 1087.7C1348.4 1034.1 1329.1 984.7 1299.1 941.8C1232.6 845.3 1121 789.5 996.6 789.5C872.2 789.5 760.6 847.4 694.1 941.8C664.1 984.7 644.8 1034.1 636.2 1087.7C627.6 1143.5 629.8 1205.7 646.9 1270.1C679.1 1411.7 767 1572.6 906.5 1746.3C818.5 1845 739.2 1911.5 661.9 1954.4C606.1 1986.6 552.5 2003.8 498.9 2010.2C443.6 2016.4 387.7 2009 335.9 1988.8C230.8 1945.9 155.7 1849.3 140.7 1737.8C134.3 1684.2 138.6 1630.6 160 1570.5C166.4 1549 177.2 1527.6 187.9 1501.9C202.9 1467.6 220.1 1431.1 237.2 1394.6L239.4 1390.3C387.4 1070.6 546.2 744.5 711.4 427L717.8 414.1C735 382 752.1 347.6 769.3 315.4C786.5 281.1 805.8 248.9 829.4 221C874.5 169.5 934.5 141.6 1001 141.6C1067.5 141.6 1127.6 169.5 1172.6 221C1196.2 248.9 1215.5 281.1 1232.7 315.4C1249.9 347.6 1267 381.9 1284.2 414L1290.7 426.9C1453.7 746.5 1612.5 1072.6 1760.5 1392.3V1394.4C1777.7 1428.7 1792.7 1467.4 1809.8 1501.7C1820.5 1527.5 1831.3 1548.9 1837.7 1570.3C1854.8 1626.2 1861.2 1679.8 1852.6 1735.6V1735.6ZM996.6 1634.7C880.8 1488.8 805.7 1351.5 779.9 1235.7C769.2 1186.3 767 1143.4 773.5 1104.8C777.8 1070.5 790.7 1040.4 807.8 1014.7C848.6 956.8 917.2 920.3 996.6 920.3C1076 920.3 1146.8 954.7 1185.4 1014.7C1202.6 1040.5 1215.4 1070.5 1219.7 1104.8C1226.1 1143.4 1224 1188.5 1213.3 1235.7C1187.6 1349.4 1112.5 1486.7 996.6 1634.7V1634.7ZM1964.2 1523.2C1953.5 1497.5 1942.7 1469.6 1932 1446C1914.8 1407.4 1897.7 1370.9 1882.6 1336.6L1880.5 1334.5C1732.5 1012.7 1573.7 686.6 1406.4 364.8L1400 351.9C1382.8 319.7 1365.7 285.4 1348.5 251.1C1327 212.5 1305.6 171.7 1271.3 133.1C1202.6 47.2 1103.9 0 998.8 0C891.5 0 795 47.2 724.1 128.7C691.9 167.3 668.3 208.1 646.9 246.7C629.7 281 612.6 315.3 595.4 347.5L589 360.3C423.8 682.1 262.9 1008.2 114.9 1330L112.8 1334.3C97.8 1368.6 80.6 1405.1 63.4 1443.7C51.9 1469.1 41.2 1494.9 31.2 1520.9C3.30002 1600.3 -5.29998 1675.4 5.40002 1752.6C29 1913.5 136.3 2048.7 284.3 2108.7C340.1 2132.3 398 2143 458.1 2143C475.3 2143 496.7 2140.9 513.9 2138.7C584.7 2130.1 657.6 2106.6 728.4 2065.8C816.4 2016.5 900 1945.7 994.4 1842.7C1088.8 1945.7 1174.6 2016.5 1260.4 2065.8C1331.2 2106.6 1404.1 2130.1 1474.9 2138.7C1492.1 2140.9 1513.5 2143 1530.7 2143C1590.8 2143 1650.8 2132.3 1704.5 2108.7C1854.7 2048.6 1959.8 1911.3 1983.4 1752.6C2000.6 1677.6 1992 1602.6 1964.2 1523.2V1523.2Z" fill="#55DC54"/>
<path d="M2690.4 820C2741.6 820 2786.8 830.4 2826 851.2C2866 871.2 2897.2 896.4 2919.6 926.8V830.8H3057.6V1502.8C3057.6 1563.6 3044.8 1617.6 3019.2 1664.8C2993.6 1712.8 2956.4 1750.4 2907.6 1777.6C2859.6 1804.8 2802 1818.4 2734.8 1818.4C2645.2 1818.4 2570.8 1797.2 2511.6 1754.8C2452.4 1713.2 2418.8 1656.4 2410.8 1584.4H2546.4C2556.8 1618.8 2578.8 1646.4 2612.4 1667.2C2646.8 1688.8 2687.6 1699.6 2734.8 1699.6C2790 1699.6 2834.4 1682.8 2868 1649.2C2902.4 1615.6 2919.6 1566.8 2919.6 1502.8V1392.4C2896.4 1423.6 2864.8 1450 2824.8 1471.6C2785.6 1492.4 2740.8 1502.8 2690.4 1502.8C2632.8 1502.8 2580 1488.4 2532 1459.6C2484.8 1430 2447.2 1389.2 2419.2 1337.2C2392 1284.4 2378.4 1224.8 2378.4 1158.4C2378.4 1092 2392 1033.2 2419.2 982C2447.2 930.8 2484.8 891.2 2532 863.2C2580 834.4 2632.8 820 2690.4 820ZM2919.6 1160.8C2919.6 1115.2 2910 1075.6 2890.8 1042C2872.4 1008.4 2848 982.8 2817.6 965.2C2787.2 947.6 2754.4 938.8 2719.2 938.8C2684 938.8 2651.2 947.6 2620.8 965.2C2590.4 982 2565.6 1007.2 2546.4 1040.8C2528 1073.6 2518.8 1112.8 2518.8 1158.4C2518.8 1204 2528 1244 2546.4 1278.4C2565.6 1312.8 2590.4 1339.2 2620.8 1357.6C2652 1375.2 2684.8 1384 2719.2 1384C2754.4 1384 2787.2 1375.2 2817.6 1357.6C2848 1340 2872.4 1314.4 2890.8 1280.8C2910 1246.4 2919.6 1206.4 2919.6 1160.8ZM3191.68 1158.4C3191.68 1092 3205.28 1033.2 3232.48 982C3260.48 930.8 3298.08 891.2 3345.28 863.2C3393.28 834.4 3446.08 820 3503.68 820C3555.68 820 3600.88 830.4 3639.28 851.2C3678.48 871.2 3709.68 896.4 3732.88 926.8V830.8H3870.88V1492H3732.88V1393.6C3709.68 1424.8 3678.08 1450.8 3638.08 1471.6C3598.08 1492.4 3552.48 1502.8 3501.28 1502.8C3444.48 1502.8 3392.48 1488.4 3345.28 1459.6C3298.08 1430 3260.48 1389.2 3232.48 1337.2C3205.28 1284.4 3191.68 1224.8 3191.68 1158.4ZM3732.88 1160.8C3732.88 1115.2 3723.28 1075.6 3704.08 1042C3685.68 1008.4 3661.28 982.8 3630.88 965.2C3600.48 947.6 3567.68 938.8 3532.48 938.8C3497.28 938.8 3464.48 947.6 3434.08 965.2C3403.68 982 3378.88 1007.2 3359.68 1040.8C3341.28 1073.6 3332.08 1112.8 3332.08 1158.4C3332.08 1204 3341.28 1244 3359.68 1278.4C3378.88 1312.8 3403.68 1339.2 3434.08 1357.6C3465.28 1375.2 3498.08 1384 3532.48 1384C3567.68 1384 3600.48 1375.2 3630.88 1357.6C3661.28 1340 3685.68 1314.4 3704.08 1280.8C3723.28 1246.4 3732.88 1206.4 3732.88 1160.8ZM4850.96 820C4902.96 820 4949.36 830.8 4990.16 852.4C5031.76 874 5064.16 906 5087.36 948.4C5111.36 990.8 5123.36 1042 5123.36 1102V1492H4987.76V1122.4C4987.76 1063.2 4972.96 1018 4943.36 986.8C4913.76 954.8 4873.36 938.8 4822.16 938.8C4770.96 938.8 4730.16 954.8 4699.76 986.8C4670.16 1018 4655.36 1063.2 4655.36 1122.4V1492H4519.76V1122.4C4519.76 1063.2 4504.96 1018 4475.36 986.8C4445.76 954.8 4405.36 938.8 4354.16 938.8C4302.96 938.8 4262.16 954.8 4231.76 986.8C4202.16 1018 4187.36 1063.2 4187.36 1122.4V1492H4050.56V830.8H4187.36V906.4C4209.76 879.2 4238.16 858 4272.56 842.8C4306.96 827.6 4343.76 820 4382.96 820C4435.76 820 4482.96 831.2 4524.56 853.6C4566.16 876 4598.16 908.4 4620.56 950.8C4640.56 910.8 4671.76 879.2 4714.16 856C4756.56 832 4802.16 820 4850.96 820ZM5251.84 1158.4C5251.84 1092 5265.44 1033.2 5292.64 982C5320.64 930.8 5358.24 891.2 5405.44 863.2C5453.44 834.4 5506.24 820 5563.84 820C5615.84 820 5661.04 830.4 5699.44 851.2C5738.64 871.2 5769.84 896.4 5793.04 926.8V830.8H5931.04V1492H5793.04V1393.6C5769.84 1424.8 5738.24 1450.8 5698.24 1471.6C5658.24 1492.4 5612.64 1502.8 5561.44 1502.8C5504.64 1502.8 5452.64 1488.4 5405.44 1459.6C5358.24 1430 5320.64 1389.2 5292.64 1337.2C5265.44 1284.4 5251.84 1224.8 5251.84 1158.4ZM5793.04 1160.8C5793.04 1115.2 5783.44 1075.6 5764.24 1042C5745.84 1008.4 5721.44 982.8 5691.04 965.2C5660.64 947.6 5627.84 938.8 5592.64 938.8C5557.44 938.8 5524.64 947.6 5494.24 965.2C5463.84 982 5439.04 1007.2 5419.84 1040.8C5401.44 1073.6 5392.24 1112.8 5392.24 1158.4C5392.24 1204 5401.44 1244 5419.84 1278.4C5439.04 1312.8 5463.84 1339.2 5494.24 1357.6C5525.44 1375.2 5558.24 1384 5592.64 1384C5627.84 1384 5660.64 1375.2 5691.04 1357.6C5721.44 1340 5745.84 1314.4 5764.24 1280.8C5783.44 1246.4 5793.04 1206.4 5793.04 1160.8ZM6247.52 929.2C6270.72 897.2 6302.32 871.2 6342.32 851.2C6383.12 830.4 6428.32 820 6477.92 820C6536.32 820 6589.12 834 6636.32 862C6683.52 890 6720.72 930 6747.92 982C6775.12 1033.2 6788.72 1092 6788.72 1158.4C6788.72 1224.8 6775.12 1284.4 6747.92 1337.2C6720.72 1389.2 6683.12 1430 6635.12 1459.6C6587.92 1488.4 6535.52 1502.8 6477.92 1502.8C6426.72 1502.8 6381.12 1492.8 6341.12 1472.8C6301.92 1452.8 6270.72 1427.2 6247.52 1396V1492H6110.72V604H6247.52V929.2ZM6649.52 1158.4C6649.52 1112.8 6639.92 1073.6 6620.72 1040.8C6602.32 1007.2 6577.52 982 6546.32 965.2C6515.92 947.6 6483.12 938.8 6447.92 938.8C6413.52 938.8 6380.72 947.6 6349.52 965.2C6319.12 982.8 6294.32 1008.4 6275.12 1042C6256.72 1075.6 6247.52 1115.2 6247.52 1160.8C6247.52 1206.4 6256.72 1246.4 6275.12 1280.8C6294.32 1314.4 6319.12 1340 6349.52 1357.6C6380.72 1375.2 6413.52 1384 6447.92 1384C6483.12 1384 6515.92 1375.2 6546.32 1357.6C6577.52 1339.2 6602.32 1312.8 6620.72 1278.4C6639.92 1244 6649.52 1204 6649.52 1158.4ZM7257.6 820C7309.6 820 7356 830.8 7396.8 852.4C7438.4 874 7470.8 906 7494 948.4C7517.2 990.8 7528.8 1042 7528.8 1102V1492H7393.2V1122.4C7393.2 1063.2 7378.4 1018 7348.8 986.8C7319.2 954.8 7278.8 938.8 7227.6 938.8C7176.4 938.8 7135.6 954.8 7105.2 986.8C7075.6 1018 7060.8 1063.2 7060.8 1122.4V1492H6924V830.8H7060.8V906.4C7083.2 879.2 7111.6 858 7146 842.8C7181.2 827.6 7218.4 820 7257.6 820ZM7840.1 929.2C7863.3 897.2 7894.9 871.2 7934.9 851.2C7975.7 830.4 8020.9 820 8070.5 820C8128.9 820 8181.7 834 8228.9 862C8276.1 890 8313.3 930 8340.5 982C8367.7 1033.2 8381.3 1092 8381.3 1158.4C8381.3 1224.8 8367.7 1284.4 8340.5 1337.2C8313.3 1389.2 8275.7 1430 8227.7 1459.6C8180.5 1488.4 8128.1 1502.8 8070.5 1502.8C8019.3 1502.8 7973.7 1492.8 7933.7 1472.8C7894.5 1452.8 7863.3 1427.2 7840.1 1396V1492H7703.3V604H7840.1V929.2ZM8242.1 1158.4C8242.1 1112.8 8232.5 1073.6 8213.3 1040.8C8194.9 1007.2 8170.1 982 8138.9 965.2C8108.5 947.6 8075.7 938.8 8040.5 938.8C8006.1 938.8 7973.3 947.6 7942.1 965.2C7911.7 982.8 7886.9 1008.4 7867.7 1042C7849.3 1075.6 7840.1 1115.2 7840.1 1160.8C7840.1 1206.4 7849.3 1246.4 7867.7 1280.8C7886.9 1314.4 7911.7 1340 7942.1 1357.6C7973.3 1375.2 8006.1 1384 8040.5 1384C8075.7 1384 8108.5 1375.2 8138.9 1357.6C8170.1 1339.2 8194.9 1312.8 8213.3 1278.4C8232.5 1244 8242.1 1204 8242.1 1158.4Z" fill="#323031"/>
</svg>
